<svg width="32" height="32" viewBox="0 0 32 32" fill="none" xmlns="http://www.w3.org/2000/svg">
<path d="M5.00067 15.5395C4.95531 14.5661 7.20068 13.6101 10.5744 12.9938C10.6708 11.7267 10.5064 10.3214 10.2285 8.97938C9.72956 6.56614 8.85636 4.36599 8.45945 3.5539C8.33471 3.30048 8.39708 3.00098 8.60688 2.82244C9.46873 2.08522 11.8105 0.305519 14.6853 0.0520995C17.4863 -0.195561 19.7657 0.518622 20.6729 0.864194C20.9224 0.962107 21.0812 1.21553 21.0528 1.48622L20.276 11.0528L20.0265 1.77996C20.0265 1.64749 19.9301 1.53806 19.8054 1.51502C19.3234 1.43439 18.8244 1.2616 18.3595 1.18673C18.2518 1.16945 18.1554 1.25584 18.1724 1.37103C18.2801 2.32136 17.8889 6.75044 15.6322 12.4063C15.8363 12.3948 16.0461 12.3833 16.2559 12.3718C22.544 12.0723 27.6982 13.0111 27.7662 14.4625C27.8116 15.4646 25.4358 16.4495 21.9033 17.06C22.1528 16.893 22.2832 16.7202 22.2719 16.5474C22.2379 15.7872 19.5389 15.2976 16.2502 15.4531C12.9615 15.6086 10.3249 16.3516 10.3589 17.1119C10.3646 17.2674 10.4837 17.4113 10.6935 17.5381C7.3311 17.2443 5.04604 16.5071 5.00067 15.5395Z" fill="#FDFFFF"/>
<path d="M20.5542 31.3089C19.9418 31.09 18.5753 30.4852 17.4186 29.8287C16.8856 29.5292 15.7686 28.7113 15.1165 28.239C14.9294 28.1008 14.7593 28.216 14.9294 28.4521L15.8083 29.7538C15.8083 29.7538 13.6593 30.9978 12.5877 31.3319C12.4629 31.3722 12.3495 31.2628 12.3552 31.1303C12.3779 29.6674 12.4232 28.2563 12.8315 26.4363C12.8598 26.3153 13.0753 26.2693 13.1887 26.3211C13.648 26.5342 16.6985 28.6364 16.6985 28.6364L19.9305 26.4536C20.2367 26.252 20.3331 26.4478 20.3501 26.563C20.5655 27.7898 20.9341 29.6847 20.798 31.1015C20.7867 31.2397 20.6846 31.3492 20.5599 31.3031" fill="#E6C55B"/>
</svg>
